<svg id="Capa_1" data-name="Capa 1" xmlns="http://www.w3.org/2000/svg" viewBox="0 0 163.22 590.75"><title>flecha</title><path d="M495.22,365.15c.81,3.44.34,12,.29,13-1.34,28.12-15.31,46.07-25.59,67.73-31.16,65.63-63.6,129.14-95.4,194.34a213,213,0,0,1-12.69,22.84c-6.89,10.61-16.18,6.8-21.87.31-4.26-4.86-9.79-11.91-3.13-23.62,16.2-28.47,29.9-58.94,44.44-88.71,22-45.1,42.91-91.06,66.27-135.17,14.95-28.21,14.21-52.38-.12-80.48-33.12-64.93-64.36-131.22-96.37-196.95-5.4-11.1-10.7-22.28-16.25-33.27-5.27-10.44-.92-16.41,6.28-22.08s13.53-6.22,18.54,2.51c7,12.2,13.66,24.74,19.94,37.49,35.62,72.27,75.39,152,110.53,224.62C493.71,357.59,492.6,354.13,495.22,365.15Z" transform="translate(-332.47 -78.95)"/></svg>