<?xml version="1.0" encoding="UTF-8"?>
<!DOCTYPE svg PUBLIC "-//W3C//DTD SVG 1.1//EN" "http://www.w3.org/Graphics/SVG/1.1/DTD/svg11.dtd">
<!-- Creator: CorelDRAW 2017 -->
<svg xmlns="http://www.w3.org/2000/svg" xml:space="preserve" width="1067px" height="949px" version="1.1" style="shape-rendering:geometricPrecision; text-rendering:geometricPrecision; image-rendering:optimizeQuality; fill-rule:evenodd; clip-rule:evenodd"
viewBox="0 0 350 312"
 xmlns:xlink="http://www.w3.org/1999/xlink">
 <defs>
  <style type="text/css">
   <![CDATA[
    .fil0 {fill:black}
   ]]>
  </style>
 </defs>
 <g id="Capa_x0020_1">
  <metadata id="CorelCorpID_0Corel-Layer"/>
  <g id="_2941358722176">
   <g>
    <path class="fil0" d="M107 284c5,-1 110,0 124,0 7,0 14,-1 17,3 4,5 1,12 -4,14 -4,1 -111,0 -125,0 -7,0 -14,1 -17,-4 -4,-6 0,-12 5,-13zm35 -11c1,-4 4,-8 6,-12 2,-4 3,-9 4,-14l48 0c1,12 6,18 10,26l-67 0zm-132 -63l330 0c0,12 2,27 -15,27l-300 0c-10,0 -15,-6 -15,-16l-1 -12zm-10 -190l0 207c3,6 2,9 7,14 2,2 8,6 13,7 7,1 109,0 121,0 -2,14 -7,18 -11,26 -12,0 -28,-2 -35,6 -8,9 -6,23 3,28 8,6 26,4 37,4l81 0c11,0 29,2 37,-4 8,-6 11,-20 3,-28 -7,-8 -22,-6 -35,-6 -3,-7 -9,-12 -11,-26 27,0 54,0 81,0 17,0 43,4 53,-7 4,-5 4,-7 6,-13l0 -164c-6,-7 -10,-2 -10,3 -1,12 0,44 0,57 0,16 1,65 0,77l-329 0c-1,-11 0,-24 0,-35 0,-20 -1,-136 0,-142 2,-14 16,-12 24,-12l284 0c6,0 11,-1 16,2 10,7 4,21 6,29 1,3 5,7 10,0l0 -22c-5,-9 -5,-20 -29,-20l-291 0c-11,0 -21,2 -26,11 -1,2 -2,6 -4,8z"/>
    <path class="fil0" d="M51 144c-6,-4 -6,-1 -6,-10 0,-11 -1,-39 0,-46l45 26 0 52 -39 -23zm50 23l0 -52 45 -26c1,13 0,32 0,46 0,7 -1,7 -6,9 -7,4 -13,8 -20,11 -5,3 -15,10 -20,11zm-50 -87c1,-2 43,-26 45,-26 2,0 29,16 34,19l11 7c-2,1 -43,26 -45,26 -1,0 -43,-24 -45,-26zm105 62c1,-6 1,-59 -1,-63 -3,-6 -12,-10 -18,-14 -7,-4 -14,-8 -20,-12 -5,-3 -16,-11 -23,-10 -4,1 -17,9 -21,11 -7,4 -14,8 -20,12 -6,4 -16,7 -17,15 -1,7 0,25 0,33 0,40 -6,29 41,56 5,3 15,10 22,9 4,-1 35,-19 41,-23 7,-4 15,-7 17,-15z"/>
    <path class="fil0" d="M281 143c10,-2 13,13 4,16 -10,3 -16,-13 -4,-16zm-82 3c-7,0 -16,-2 -16,6 0,7 10,5 16,5l64 0c2,0 1,1 3,5 9,14 30,9 33,-5 6,0 15,2 15,-5 0,-7 -8,-5 -14,-5 -3,-7 -8,-14 -18,-13 -15,0 -15,12 -19,13l-64 0z"/>
    <path class="fil0" d="M280 65c9,-5 17,11 6,15 -10,4 -17,-10 -6,-15zm-16 2l-64 0c-6,0 -16,-2 -16,5 -1,7 9,6 16,6l64 0c3,1 4,13 19,13 10,0 15,-6 18,-13 6,0 14,2 14,-5 0,-7 -9,-5 -15,-5 -3,-14 -24,-19 -33,-5 -4,6 0,4 -3,5z"/>
    <path class="fil0" d="M214 104c11,-3 14,13 5,16 -11,3 -15,-12 -5,-16zm-16 3c-5,0 -14,-2 -14,5 0,7 9,5 15,5 4,17 31,18 35,0l64 0c6,0 16,2 17,-5 1,-8 -10,-6 -16,-6 -21,0 -45,0 -65,0 -4,-7 -7,-13 -18,-13 -12,0 -15,8 -18,13z"/>
   </g>
  </g>
 </g>
</svg>
