<?xml version="1.0" encoding="UTF-8"?>
<!DOCTYPE svg PUBLIC "-//W3C//DTD SVG 1.1//EN" "http://www.w3.org/Graphics/SVG/1.1/DTD/svg11.dtd">
<!-- Creator: CorelDRAW 2017 -->
<svg xmlns="http://www.w3.org/2000/svg" xml:space="preserve" width="1067px" height="954px" version="1.1" style="shape-rendering:geometricPrecision; text-rendering:geometricPrecision; image-rendering:optimizeQuality; fill-rule:evenodd; clip-rule:evenodd"
viewBox="0 0 1330 1190"
 xmlns:xlink="http://www.w3.org/1999/xlink">
 <defs>
  <style type="text/css">
   <![CDATA[
    .fil0 {fill:black}
   ]]>
  </style>
 </defs>
 <g id="Capa_x0020_1">
  <metadata id="CorelCorpID_0Corel-Layer"/>
  <g id="_2941366565040">
   <path class="fil0" d="M39 1083l0 -424c0,-63 71,-65 88,-26 13,29 -1,110 7,131 7,17 37,15 37,-9l0 -52c86,0 140,-1 217,46 94,57 104,56 225,66 28,2 60,6 87,10 34,4 54,2 79,17 38,25 35,59 35,98l-275 0c-49,0 -52,-26 -75,-26 -7,0 -42,23 12,50 27,14 45,17 84,17l262 0c23,0 41,-13 57,-21 18,-9 33,-17 53,-25 36,-15 69,-35 104,-52l132 -63c17,-8 68,-36 81,-36 31,0 54,33 37,63 -10,17 -178,126 -202,141l-171 115c-39,27 -72,47 -127,47l-299 0c-48,0 -148,-45 -198,-65l-117 -45 0 -171c0,-6 4,-44 -16,-44 -32,0 -23,42 -23,96 0,23 2,164 -2,180 -4,15 -14,26 -28,32 -35,13 -63,-14 -63,-50zm1291 -261l0 12c-2,23 -14,47 -43,66 -23,15 -44,29 -67,45 -23,15 -43,30 -67,45l-132 89c-23,15 -43,29 -65,44 -47,31 -91,67 -154,67l-335 0c-27,0 -60,-13 -80,-21 -23,-9 -48,-19 -71,-28 -25,-10 -48,-18 -73,-28 -15,-6 -59,-26 -72,-27 0,38 -18,68 -46,82 -36,18 -73,11 -102,-17 -13,-13 -24,-30 -24,-54l0 -452c0,-57 86,-110 145,-54 24,23 27,43 27,72 141,0 173,12 285,81 7,4 9,5 18,8 15,6 26,10 44,13l202 22c17,2 33,2 48,7 62,18 87,70 87,134 16,-8 33,-15 49,-23l237 -116c49,-25 69,-42 116,-42 36,0 70,36 73,77z"/>
   <path class="fil0" d="M426 221l193 111c11,7 55,34 67,37l0 301c-10,-2 -153,-87 -169,-96 -19,-11 -36,-21 -56,-32 -6,-3 -23,-13 -27,-17 -9,-8 -7,-21 -7,-37l0 -268zm21 -36c8,-2 24,-13 32,-17 11,-7 22,-13 33,-19 22,-12 42,-25 64,-37 23,-13 42,-24 64,-37 91,-54 48,-44 197,37 44,24 84,50 129,74 -4,5 -44,28 -53,33 -24,13 -51,24 -51,42 0,33 36,13 48,6l51 -30c9,-5 18,-10 26,-15l0 265c0,16 3,29 -6,38 -2,2 -239,143 -254,146l0 -299c16,-11 34,-19 51,-30 19,-12 45,-21 45,-38 0,-10 -12,-22 -24,-19 -6,1 -25,13 -31,16 -80,48 -48,40 -127,-2l-130 -75c-11,-6 -22,-12 -33,-19 -8,-5 -27,-14 -32,-20zm-62 42l0 268c0,53 21,63 53,82l214 124c69,42 79,15 151,-24l168 -97c29,-16 58,-30 58,-74l0 -288c0,-44 -29,-58 -58,-74 -53,-29 -116,-69 -168,-97 -19,-10 -67,-44 -88,-44 -35,0 -28,1 -62,21l-214 124c-33,19 -53,29 -53,82z"/>
  </g>
 </g>
</svg>
