<svg id="Capa_1" data-name="Capa 1" xmlns="http://www.w3.org/2000/svg" viewBox="0 0 486.63 710.1"><title>Icon1</title><g id="Capa_1-2" data-name="Capa_1"><g id="_2941447979808" data-name=" 2941447979808"><path d="M303.4,690.6H181.06c-8.16,0-13.59-1.64-17.94-5.44-7.07-6-8.7-10.88-8.7-19H330.58c0,16.31-11.42,25-27.73,25ZM230,.61h24.47c37,1.63,74,12,108.75,31.54C376.26,39.22,385,46.29,395.83,55c25.55,19.58,48.93,48.94,63.62,78.3C472,157.75,485,192,485,220.28c0,6.52-1.63,10.87-9.79,10.87-22.83,0-1.63-48.93-51.65-116.36-84.82-113.63-242-124-338.2-27.73C3.81,168.62-2.72,298,72.32,387.2c33.16,39.15,38.06,44.58,59.26,86.45,2.72,5.44,6,12,7.61,17.4,1.09,3.26,1.63,6,3.27,9.24,1.63,3.81,1.08,6,5.43,6H338.2c4.89,0,4.34-3.26,5.43-7.06a97,97,0,0,1,3.26-9.25c2.72-6.52,4.35-10.33,7.07-16.31a159.31,159.31,0,0,0,8.16-16.86c12-23.38,28.27-43.49,45.13-63.07a240.64,240.64,0,0,0,41.32-65.79c11.42-28.27,9.79-31,14.68-57.63,3.26-17.4,21.75-13.59,21.75-.55,0,31.54-17.94,74.49-34.8,102.77-18.48,31-40.23,46.76-58.18,76.66-6.52,10.88-28.27,49.48-29.36,60.9,9.79,2.72,16.86,13.05,19,22.29,2.72,11.42-.54,25-8.15,30.45,3.8,6,9.24,12.51,9.24,23.38,0,10.33-4.89,16.86-9.24,23.38,8.7,6.53,11.42,23.38,6.52,35.34-3.8,9.25-14.68,19.58-27.18,20.12-.55,23.92-19,45.67-43,45.67H175.08c-14.14,0-22.84-6.52-30.45-14.13s-13-16.86-13-31.54c-29.36-.54-39.69-42.95-20.66-55.46-2.72-3.81-4.89-6-7.07-10.87-4.89-12.51-2.17-28.82,7.07-34.8-2.72-3.81-4.89-6-7.07-10.88-8.7-21.2,7.07-40.23,17.94-42.95-2.71-11.42-9.24-23.92-14.13-33.17-21.21-41.86-29.91-47.84-58.72-82.64C36.43,379,21.21,352.94,14.68,334.46c-15.22-43-16.31-56-16.31-101.68,0-35.34,12.5-68.51,23.38-93.52l10.33-19C76.67,46.29,151.15,4.42,229.45.61ZM124,632.42c0-8.7,6.52-12.51,15.22-12.51H345.81c20.66,0,20.66,25,0,25H139.19C130.49,644.92,124,641.12,124,632.42Zm0-91.89c0-8.16,7.07-12.51,12.5-12.51h212.6a12.31,12.31,0,0,1,12.51,12.51c0,15.22-19.58,12.5-34.8,12.5H232.17c-15.22,0-37-3.8-37,9.79,0,6.53,3.8,10.88,12,10.88,7.61.54,16.31,0,23.92,0h94.61c15.77,0,35.89-3.27,35.89,12.5,0,8.7-6.53,12.51-15.23,12.51H139.74c-8.7,0-15.23-3.81-15.23-12.51,0-25,44.59-1.09,44.59-22.29,0-23.93-44.59,1.63-44.59-23.38Z" transform="translate(1.63 -0.61)" style="fill-rule:evenodd"/><path d="M128.32,215.93l90.8,52.19c4.35,2.18,9.24,6,13.59,7.62V395.35L132.12,337.72c-4.89-4.35-3.8-6-3.8-14.14V215.93ZM253.37,394.81V275.19c33.17-17.4,72.32-42.95,104.4-59.81V320.86c0,17.4-3.26,15.23-14.14,21.75l-78.29,45.13c-4.35,2.72-7.62,3.81-12,6.53ZM139.74,196.35c5.43-1.09,20.11-10.33,25-13.59,9.24-5.44,72.86-43.5,77.21-43.5,6,0,21.2,10.33,26.64,13.59l70.68,40.78c4.9,2.72,3.81,0,5.44,6-5.44,1.09-19.57,10.34-25,13.6-8.7,4.89-16.86,9.78-25.56,14.68-4.89,2.72-45.13,25.55-50.56,29.9-8.16-4.35-16.86-9.78-25.56-14.68-10.33-6.52-75.57-41.86-78.29-46.21Zm-32.08,9.79V333.91c0,16.32,14.68,22.3,25,28.82l70.68,40.78c6,3.26,11.42,6.52,17.4,10.33,19.58,11.42,26.1,9.79,44,0l88.09-50.57c11.41-7.06,25-13,25-30.44V206.68c0-17.4-15.77-23.92-25.56-29.9l-88.08-51.11c-17.4-10.33-25-10.88-42.95-.55l-88.09,51.11c-11.42,6.53-26.64,12.51-26.64,30.45Z" transform="translate(1.63 -0.61)" style="fill-rule:evenodd"/></g></g></svg>